<svg width="226" height="132" viewBox="0 0 226 132" fill="none" xmlns="http://www.w3.org/2000/svg">
<path d="M225.792 91.9859C225.792 97.4205 224.754 102.519 222.678 107.282C220.602 112.045 217.762 116.228 214.159 119.831C210.618 123.372 206.465 126.181 201.702 128.258C196.94 130.334 191.841 131.372 186.406 131.372H120.732V0.0244141H186.406C191.841 0.0244141 196.94 1.06249 201.702 3.13865C206.465 5.2148 210.618 8.05425 214.159 11.657C217.762 15.1987 220.602 19.351 222.678 24.1139C224.754 28.8769 225.792 33.9757 225.792 39.4103C225.792 41.8528 225.456 44.3564 224.784 46.9211C224.113 49.4857 223.166 51.9588 221.945 54.3403C220.724 56.7218 219.258 58.8895 217.548 60.8435C215.839 62.7976 213.946 64.4157 211.87 65.6981C214.007 66.8583 215.93 68.4459 217.64 70.461C219.35 72.415 220.815 74.5828 222.037 76.9643C223.258 79.3457 224.174 81.8493 224.784 84.4751C225.456 87.0397 225.792 89.5433 225.792 91.9859ZM147.02 105.084H186.406C188.238 105.084 189.948 104.748 191.535 104.076C193.123 103.405 194.497 102.489 195.657 101.329C196.878 100.107 197.825 98.7028 198.497 97.1152C199.168 95.5275 199.504 93.8178 199.504 91.9859C199.504 90.154 199.168 88.4442 198.497 86.8565C197.825 85.2689 196.878 83.895 195.657 82.7348C194.497 81.5135 193.123 80.567 191.535 79.8953C189.948 79.2236 188.238 78.8878 186.406 78.8878H147.02V105.084ZM147.02 52.6H186.406C188.238 52.6 189.948 52.2641 191.535 51.5924C193.123 50.9207 194.497 50.0048 195.657 48.8446C196.878 47.6233 197.825 46.2189 198.497 44.6312C199.168 42.9825 199.504 41.2422 199.504 39.4103C199.504 37.5784 199.168 35.8686 198.497 34.281C197.825 32.6933 196.878 31.3194 195.657 30.1592C194.497 28.9379 193.123 27.9914 191.535 27.3197C189.948 26.648 188.238 26.3122 186.406 26.3122H147.02V52.6Z" fill="white"/>
<path d="M26.4811 26.3122V78.8878H52.7689C56.3717 78.8878 59.7607 78.2161 62.936 76.8727C66.1113 75.4682 68.8897 73.5753 71.2711 71.1938C73.6526 68.8123 75.515 66.0339 76.8584 62.8586C78.2629 59.6223 78.9651 56.2027 78.9651 52.6C78.9651 48.9972 78.2629 45.6082 76.8584 42.4329C75.515 39.1966 73.6526 36.3877 71.2711 34.0062C68.8897 31.6247 66.1113 29.7623 62.936 28.4189C59.7607 27.0144 56.3717 26.3122 52.7689 26.3122H26.4811ZM26.4811 131.372H0.193359V0.0244141H52.7689C57.5929 0.0244141 62.2337 0.66558 66.6914 1.94791C71.149 3.16918 75.3013 4.94002 79.1483 7.26042C83.0564 9.51977 86.598 12.2676 89.7733 15.504C93.0097 18.6793 95.7575 22.221 98.0169 26.129C100.337 30.0371 102.108 34.2199 103.329 38.6775C104.612 43.1352 105.253 47.776 105.253 52.6C105.253 59.8055 103.879 66.614 101.131 73.0257C98.3833 79.3763 94.6279 84.933 89.8649 89.696C85.102 94.4589 79.5147 98.2143 73.103 100.962C66.7524 103.71 59.9744 105.084 52.7689 105.084H26.4811V131.372Z" fill="white"/>
</svg>
